<svg width="64" height="64" viewBox="0 0 64 64" fill="none" xmlns="http://www.w3.org/2000/svg">
  <defs>
    <linearGradient id="leadmagic-purple-gradient" x1="0%" y1="0%" x2="100%" y2="100%">
      <stop offset="0%" style="stop-color:#8B5CF6;stop-opacity:1" />
      <stop offset="50%" style="stop-color:#7C3AED;stop-opacity:1" />
      <stop offset="100%" style="stop-color:#6D28D9;stop-opacity:1" />
    </linearGradient>
  </defs>
  
  <!-- Rounded square background with purple gradient -->
  <rect x="4" y="4" width="56" height="56" rx="12" ry="12" fill="url(#leadmagic-purple-gradient)" />
  
  <!-- Magic wand in center -->
  <g transform="translate(32, 32)">
    <!-- Main wand shaft -->
    <line x1="-8" y1="8" x2="8" y2="-8" stroke="white" stroke-width="2.5" stroke-linecap="round"/>
    
    <!-- Star at tip -->
    <g transform="translate(8, -8)">
      <path d="M 0,-4 L 1.2,-1.2 L 4,0 L 1.2,1.2 L 0,4 L -1.2,1.2 L -4,0 L -1.2,-1.2 Z" fill="white"/>
    </g>
    
    <!-- Sparkle effects -->
    <circle cx="-6" cy="-6" r="1" fill="white" opacity="0.9"/>
    <circle cx="6" cy="6" r="1.5" fill="white" opacity="0.8"/>
    <circle cx="-10" cy="2" r="0.8" fill="white" opacity="0.7"/>
    <circle cx="2" cy="-10" r="1.2" fill="white" opacity="0.6"/>
    
    <!-- Small stars -->
    <g transform="translate(-12, -4) scale(0.4)">
      <path d="M 0,-3 L 0.9,-0.9 L 3,0 L 0.9,0.9 L 0,3 L -0.9,0.9 L -3,0 L -0.9,-0.9 Z" fill="white" opacity="0.8"/>
    </g>
    <g transform="translate(10, -2) scale(0.3)">
      <path d="M 0,-3 L 0.9,-0.9 L 3,0 L 0.9,0.9 L 0,3 L -0.9,0.9 L -3,0 L -0.9,-0.9 Z" fill="white" opacity="0.6"/>
    </g>
  </g>
</svg> 